<mxfile host="app.diagrams.net" modified="2023-06-07T08:55:30.241Z" agent="Mozilla/5.0 (Macintosh; Intel Mac OS X 10_15_7) AppleWebKit/537.36 (KHTML, like Gecko) Chrome/114.0.0.0 Safari/537.36" etag="D17f6h6DdtzI0WiB3Ny2" version="21.3.0" type="device">
  <diagram name="Page-1" id="X4Im-f5f1Zio3-pebtlZ">
    <mxGraphModel dx="1034" dy="591" grid="1" gridSize="10" guides="1" tooltips="1" connect="1" arrows="1" fold="1" page="1" pageScale="1" pageWidth="850" pageHeight="1100" math="0" shadow="0">
      <root>
        <mxCell id="0" />
        <mxCell id="1" parent="0" />
        <mxCell id="CyW_Q9K7x_u4Su4oTUQy-1" value="Sender" style="shape=umlActor;verticalLabelPosition=bottom;verticalAlign=top;html=1;outlineConnect=0;" vertex="1" parent="1">
          <mxGeometry x="90" y="80" width="30" height="60" as="geometry" />
        </mxCell>
        <mxCell id="CyW_Q9K7x_u4Su4oTUQy-3" value="Receiver" style="shape=umlActor;verticalLabelPosition=bottom;verticalAlign=top;html=1;outlineConnect=0;" vertex="1" parent="1">
          <mxGeometry x="90" y="190" width="30" height="60" as="geometry" />
        </mxCell>
        <mxCell id="CyW_Q9K7x_u4Su4oTUQy-4" value="" style="endArrow=classic;html=1;rounded=0;" edge="1" parent="1">
          <mxGeometry width="50" height="50" relative="1" as="geometry">
            <mxPoint x="140" y="120" as="sourcePoint" />
            <mxPoint x="230" y="150" as="targetPoint" />
          </mxGeometry>
        </mxCell>
        <mxCell id="CyW_Q9K7x_u4Su4oTUQy-6" value="&lt;font style=&quot;font-size: 18px;&quot;&gt;Send&lt;/font&gt;" style="edgeLabel;html=1;align=center;verticalAlign=middle;resizable=0;points=[];" vertex="1" connectable="0" parent="CyW_Q9K7x_u4Su4oTUQy-4">
          <mxGeometry x="0.2933" y="-4" relative="1" as="geometry">
            <mxPoint y="-23" as="offset" />
          </mxGeometry>
        </mxCell>
        <mxCell id="CyW_Q9K7x_u4Su4oTUQy-5" value="" style="endArrow=classic;html=1;rounded=0;" edge="1" parent="1">
          <mxGeometry width="50" height="50" relative="1" as="geometry">
            <mxPoint x="220" y="180" as="sourcePoint" />
            <mxPoint x="140" y="230" as="targetPoint" />
          </mxGeometry>
        </mxCell>
        <mxCell id="CyW_Q9K7x_u4Su4oTUQy-7" value="&lt;font style=&quot;font-size: 18px;&quot;&gt;Pull&lt;/font&gt;" style="edgeLabel;html=1;align=center;verticalAlign=middle;resizable=0;points=[];" vertex="1" connectable="0" parent="CyW_Q9K7x_u4Su4oTUQy-5">
          <mxGeometry x="-0.0885" y="1" relative="1" as="geometry">
            <mxPoint x="12" y="11" as="offset" />
          </mxGeometry>
        </mxCell>
        <mxCell id="CyW_Q9K7x_u4Su4oTUQy-9" value="&lt;font style=&quot;font-size: 18px;&quot;&gt;HTTP API&lt;/font&gt;" style="rounded=0;whiteSpace=wrap;html=1;" vertex="1" parent="1">
          <mxGeometry x="240" y="140" width="105" height="60" as="geometry" />
        </mxCell>
        <mxCell id="CyW_Q9K7x_u4Su4oTUQy-10" value="&lt;font style=&quot;font-size: 18px;&quot;&gt;RPC Server&lt;/font&gt;" style="rounded=0;whiteSpace=wrap;html=1;" vertex="1" parent="1">
          <mxGeometry x="460" y="140" width="120" height="60" as="geometry" />
        </mxCell>
        <mxCell id="CyW_Q9K7x_u4Su4oTUQy-11" value="" style="endArrow=classic;startArrow=classic;html=1;rounded=0;exitX=1;exitY=0.5;exitDx=0;exitDy=0;entryX=0;entryY=0.5;entryDx=0;entryDy=0;" edge="1" parent="1" source="CyW_Q9K7x_u4Su4oTUQy-9" target="CyW_Q9K7x_u4Su4oTUQy-10">
          <mxGeometry width="50" height="50" relative="1" as="geometry">
            <mxPoint x="360" y="200" as="sourcePoint" />
            <mxPoint x="410" y="150" as="targetPoint" />
          </mxGeometry>
        </mxCell>
        <mxCell id="CyW_Q9K7x_u4Su4oTUQy-12" value="&lt;font style=&quot;font-size: 18px;&quot;&gt;RPC Calling&lt;/font&gt;" style="edgeLabel;html=1;align=center;verticalAlign=middle;resizable=0;points=[];" vertex="1" connectable="0" parent="CyW_Q9K7x_u4Su4oTUQy-11">
          <mxGeometry x="0.3043" y="2" relative="1" as="geometry">
            <mxPoint x="-20" y="-18" as="offset" />
          </mxGeometry>
        </mxCell>
        <mxCell id="CyW_Q9K7x_u4Su4oTUQy-13" value="&lt;font style=&quot;font-size: 18px;&quot;&gt;DB&lt;/font&gt;" style="shape=cylinder3;whiteSpace=wrap;html=1;boundedLbl=1;backgroundOutline=1;size=15;" vertex="1" parent="1">
          <mxGeometry x="700" y="130" width="60" height="80" as="geometry" />
        </mxCell>
        <mxCell id="CyW_Q9K7x_u4Su4oTUQy-14" value="&lt;font style=&quot;font-size: 18px;&quot;&gt;read/write&lt;/font&gt;" style="endArrow=classic;startArrow=classic;html=1;rounded=0;exitX=1;exitY=0.5;exitDx=0;exitDy=0;entryX=0;entryY=0.5;entryDx=0;entryDy=0;entryPerimeter=0;" edge="1" parent="1">
          <mxGeometry y="21" width="50" height="50" relative="1" as="geometry">
            <mxPoint x="580" y="171" as="sourcePoint" />
            <mxPoint x="700" y="171" as="targetPoint" />
            <mxPoint as="offset" />
          </mxGeometry>
        </mxCell>
      </root>
    </mxGraphModel>
  </diagram>
</mxfile>
